<svg version="1" xmlns="http://www.w3.org/2000/svg" width="1600" height="1600" viewBox="0 0 1200.000000 1200.000000"><path d="M593.8 109.5c-3 1.8-8.2 4.8-11.4 6.6-3.3 1.8-14 7.8-23.9 13.4-9.9 5.6-20 11.3-22.5 12.7-4.1 2.3-77.5 43.8-123 69.6-10.2 5.8-24.8 14.1-32.5 18.4-7.7 4.4-14.7 8.3-15.5 8.8-.8.5-9.8 5.6-20 11.3-24.9 14-39.1 22-41.1 23.2-.9.5-3.6 2.1-6 3.4-2.4 1.3-14.1 7.9-25.9 14.6-11.8 6.7-23.5 13.3-26 14.7-2.5 1.4-13 7.4-23.5 13.3-30.3 17.2-28.7 16.3-46.5 26.3l-12.5 7-.3 247.4-.2 247.4 6.7 3.8c3.8 2.1 9.1 5.1 11.8 6.6 2.8 1.5 14.9 8.3 27 15.2 12.1 6.9 24 13.6 26.5 15 2.5 1.4 7.4 4.2 11 6.3 3.6 2 9 5.1 12 6.8 3 1.6 16.8 9.4 30.5 17.2 24.1 13.7 53.2 30.1 62.5 35.3 2.5 1.4 6.2 3.6 8.2 4.9 2.1 1.2 3.9 2.3 4.2 2.3.2 0 8 4.3 17.2 9.6 9.3 5.2 20.7 11.7 25.4 14.4 4.7 2.6 18.4 10.4 30.5 17.2 21.7 12.3 57.7 32.7 66.5 37.6 2.5 1.4 13.9 7.9 25.3 14.4 11.5 6.5 21.1 11.8 21.3 11.8.2 0 2.8 1.6 5.8 3.5s5.7 3.5 5.9 3.5c.2 0 9.1 4.9 19.8 10.9 17.1 9.7 19.6 10.8 21 9.5.8-.8 1.8-1.4 2.1-1.4.6 0 48.1-26.7 51.8-29 .8-.5 3.1-1.8 5-2.8 1.9-1 13.4-7.5 25.5-14.4 23.7-13.4 27.7-15.7 40-22.6 4.4-2.4 12.5-7 18-10.2 5.5-3.2 11.8-6.8 14-8 2.2-1.2 14.4-8.1 27-15.3 12.7-7.2 24.8-14 27-15.2 2.2-1.2 19.1-10.7 37.5-21.2 18.4-10.4 36.2-20.4 39.5-22.3 3.3-1.8 6.5-3.6 7-4 .6-.4 3.7-2.2 7-4 3.3-1.8 14.1-7.9 24-13.5 35.1-20 63.1-35.8 69.5-39.3 3.6-1.9 8.1-4.5 10-5.7 1.9-1.2 4-2.4 4.5-2.6.6-.2 6.6-3.5 13.3-7.4l12.2-7V353.2l-5.7-3.3c-3.2-1.7-7.4-4.1-9.3-5.2-6-3.5-18.3-10.4-22-12.3-1.9-1.1-3.7-2.1-4-2.4-.3-.3-2.1-1.3-4-2.4-1.9-1-12.1-6.7-22.7-12.7-10.6-6-20.9-11.8-23-13a39384 39384 0 0 0-44.8-25.4c-48.1-27.2-49.3-27.9-56.5-31.8-3-1.6-8-4.4-11-6.2-3-1.8-7.3-4.3-9.5-5.5-2.2-1.2-10.7-6.1-19-10.8-8.2-4.7-17-9.6-19.5-11-2.5-1.4-7.4-4.2-11-6.2-3.6-2-8.5-4.9-11-6.2-10.7-6-59-33.3-64.3-36.4-3.2-1.9-6-3.4-6.2-3.4-.3 0-3.4-1.8-7-4s-6.7-4-7-4c-.2 0-4.6-2.4-9.7-5.4-10.2-5.9-36.1-20.5-44.8-25.4-3-1.6-9.3-5.2-14-7.9-4.7-2.7-9.2-5.2-10-5.5-.9-.3-4.1.9-7.2 2.7z"/></svg>